<?xml version="1.0" encoding="UTF-8" standalone="no"?>
<!-- Created with Inkscape (http://www.inkscape.org/) -->

<svg
   width="240mm"
   height="240mm"
   viewBox="0 0 240 240"
   version="1.1"
   id="svg5"
   inkscape:version="1.1 (c68e22c387, 2021-05-23)"
   sodipodi:docname="img.svg"
   inkscape:export-filename="E:\OneDrive - Assuit University - Staff\Microsoft visual studio - my codes\repos\DVD-CNC\DVD-CNC\img.png"
   inkscape:export-xdpi="274.29999"
   inkscape:export-ydpi="274.29999"
   xmlns:inkscape="http://www.inkscape.org/namespaces/inkscape"
   xmlns:sodipodi="http://sodipodi.sourceforge.net/DTD/sodipodi-0.dtd"
   xmlns="http://www.w3.org/2000/svg"
   xmlns:svg="http://www.w3.org/2000/svg">
  <sodipodi:namedview
     id="namedview7"
     pagecolor="#ffffff"
     bordercolor="#666666"
     borderopacity="1.0"
     inkscape:pageshadow="2"
     inkscape:pageopacity="0.0"
     inkscape:pagecheckerboard="0"
     inkscape:document-units="mm"
     showgrid="false"
     width="240mm"
     inkscape:zoom="0.32337963"
     inkscape:cx="556.62133"
     inkscape:cy="650.93772"
     inkscape:window-width="1280"
     inkscape:window-height="953"
     inkscape:window-x="1016"
     inkscape:window-y="-8"
     inkscape:window-maximized="1"
     inkscape:current-layer="layer1" />
  <defs
     id="defs2">
    <pattern
       id="EMFhbasepattern"
       patternUnits="userSpaceOnUse"
       width="6"
       height="6"
       x="0"
       y="0" />
    <pattern
       id="EMFhbasepattern-4"
       patternUnits="userSpaceOnUse"
       width="6"
       height="6"
       x="0"
       y="0" />
    <pattern
       id="EMFhbasepattern-9"
       patternUnits="userSpaceOnUse"
       width="6"
       height="6"
       x="0"
       y="0" />
    <pattern
       id="EMFhbasepattern-7"
       patternUnits="userSpaceOnUse"
       width="6"
       height="6"
       x="0"
       y="0" />
    <pattern
       id="EMFhbasepattern-6"
       patternUnits="userSpaceOnUse"
       width="6"
       height="6"
       x="0"
       y="0" />
    <pattern
       id="EMFhbasepattern-40"
       patternUnits="userSpaceOnUse"
       width="6"
       height="6"
       x="0"
       y="0" />
    <pattern
       id="EMFhbasepattern-78"
       patternUnits="userSpaceOnUse"
       width="6"
       height="6"
       x="0"
       y="0" />
  </defs>
  <g
     inkscape:label="طبقة 1"
     inkscape:groupmode="layer"
     id="layer1">
    <path
       style="fill:#000000;stroke-width:0.402827"
       d="m 90.522637,232.29666 v -4.2098 h -1.315518 c -2.661176,0 -4.257461,-1.13554 -4.568737,-3.25003 -0.125608,-0.85298 -0.238655,-0.87947 -3.390781,-0.7943 -2.376907,0.0642 -3.554374,-0.0691 -4.343567,-0.49193 -1.005657,-0.53876 -1.08269,-0.79974 -1.08269,-3.66774 0,-2.82009 -0.07543,-3.08773 -0.870029,-3.08773 -2.31668,0 -3.875687,-1.30746 -4.126061,-3.46036 l -0.127124,-1.09275 -4.994322,-0.10277 -4.994323,-0.1029 -0.296055,-1.29027 c -0.16282,-0.70965 -0.117863,-1.43603 0.100018,-1.61414 0.217844,-0.1781 2.598506,-0.37075 5.290378,-0.4281 l 4.894289,-0.10416 v -3.27824 -3.27824 l -5.006967,-0.10301 c -4.864303,-0.10012 -5.014595,-0.12776 -5.274769,-0.9754 -0.147328,-0.47983 -0.138068,-1.2068 0.02054,-1.61549 0.26435,-0.68099 0.704854,-0.75163 5.274769,-0.84583 l 4.986342,-0.10278 v -3.27824 -3.27824 l -4.986342,-0.1029 c -5.453449,-0.11248 -5.876779,-0.308 -5.229711,-2.41596 l 0.289033,-0.94161 h 5.07489 5.074874 v -1.61267 c 0,-1.30836 0.221515,-1.75514 1.173814,-2.36762 0.645602,-0.4152 1.748193,-0.75493 2.450217,-0.75493 h 1.276405 v -3.08772 c 0,-2.87959 0.07392,-3.12736 1.097692,-3.67578 0.822211,-0.44049 1.910557,-0.55737 4.336412,-0.46574 l 3.238721,0.12239 0.276051,-1.38865 c 0.35071,-1.7641 1.139836,-2.39922 3.333045,-2.68258 0.963126,-0.12445 1.907022,-0.40578 2.097556,-0.62522 0.190534,-0.21944 0.322052,-1.87419 0.292283,-3.67722 -0.02981,-1.80302 -0.03536,-3.49256 -0.01174,-3.7545 0.02912,-0.33125 0.618327,-0.44215 1.935193,-0.36424 l 1.893343,0.11202 0.125948,4.0978 0.125937,4.09781 h 3.980276 3.980263 l 0.12594,-4.09781 0.12595,-4.0978 h 2.00471 2.00473 l 0.12594,4.0978 0.12595,4.09781 h 3.98026 3.98027 l 0.12594,-4.09781 0.12595,-4.0978 h 2.00472 2.00473 l 0.12544,4.05137 0.12544,4.05139 1.82921,0.20061 c 2.24716,0.24643 3.09318,0.89711 3.44243,2.64752 l 0.26891,1.34777 3.60726,0.043 c 4.85237,0.0577 5.07986,0.24104 5.07986,4.09424 v 3.05152 h 1.2764 c 0.70202,0 1.80462,0.33972 2.45021,0.75493 0.95231,0.61247 1.17382,1.05925 1.17382,2.36761 v 1.61269 h 8.20329 8.2033 l 0.14968,-4.1595 c 0.0823,-2.28772 0.31643,-4.29564 0.52018,-4.46204 0.20375,-0.1664 5.90024,-0.38452 12.65883,-0.48468 l 12.28837,-0.18212 0.85842,-1.27487 c 2.0713,-3.07622 4.64812,-4.37099 8.69907,-4.37099 6.09526,0 10.53349,5.12883 8.5947,9.93208 -1.20575,2.98712 -6.55514,5.76723 -9.94573,5.16886 -3.42273,-0.60405 -6.58627,-2.68965 -7.56624,-4.98814 l -0.42916,-1.00658 h -10.64828 -10.64827 v 3.78426 c 0,5.60499 0.6259,5.30079 -11.13734,5.41284 l -9.5781,0.0912 v 3.27824 3.27824 l 14.50442,0.096 14.50443,0.096 0.63529,-1.32389 c 0.84504,-1.76086 3.82851,-3.85118 6.365,-4.4595 5.52526,-1.32511 11.43592,2.47753 11.43592,7.35731 0,2.2587 -0.88153,3.89502 -2.96328,5.50049 -4.34022,3.34724 -11.37043,2.36894 -14.30461,-1.99054 l -1.22008,-1.81277 -14.47855,0.0897 -14.47854,0.0897 v 3.27824 3.27824 l 9.75823,0.0983 c 8.64096,0.0871 9.82526,0.17048 10.34357,0.72849 0.39271,0.42282 0.58997,1.85867 0.59948,4.36372 l 0.0135,3.73355 h 10.70288 10.70287 l 0.40463,-0.87016 c 0.58607,-1.26037 3.04894,-3.44439 4.65125,-4.12463 1.66704,-0.70772 5.84895,-0.77537 7.39782,-0.11977 2.37943,1.0073 4.13944,2.36096 4.93721,3.79734 3.57514,6.43693 -4.50634,13.0123 -12.30769,10.01398 -2.14867,-0.82579 -4.65977,-2.9938 -4.65977,-4.02309 0,-0.3432 -0.21123,-0.73074 -0.46941,-0.8612 -0.25817,-0.13051 -5.76246,-0.21499 -12.23177,-0.18784 -14.49075,0.0608 -13.58296,0.41316 -13.58296,-5.27203 v -3.83283 l -8.13025,0.0992 -8.13026,0.0993 -0.12713,1.09274 c -0.25036,2.1529 -1.80938,3.46037 -4.12606,3.46037 -0.79381,0 -0.87002,0.26734 -0.87002,3.05152 0,3.80669 -0.25442,4.02305 -4.85652,4.12996 -1.86182,0.0432 -3.54426,0.0843 -3.73876,0.091 -0.19451,0.007 -0.3033,0.21733 -0.24175,0.46775 0.41202,1.67634 -1.83844,3.55142 -4.26239,3.55142 h -1.15637 l -0.007,3.73355 c -0.004,2.05344 -0.17453,3.94978 -0.37947,4.21406 -0.23351,0.3011 -1.02112,0.43711 -2.10928,0.36425 l -1.73666,-0.11632 -0.12593,-4.0978 -0.12595,-4.09779 h -3.98065 -3.98026 l -0.12595,4.09779 -0.12594,4.0978 -1.73663,0.11632 c -1.08816,0.0728 -1.87577,-0.0632 -2.10928,-0.36425 -0.20495,-0.26428 -0.37571,-2.16062 -0.37946,-4.21406 l -0.007,-3.73355 h -3.994857 -3.994844 l -0.125949,4.0978 -0.125948,4.09779 -1.893343,0.11203 -1.893349,0.11203 z m 102.698243,-9.7962 c 1.6125,-1.13969 1.71738,-1.33768 1.68344,-3.17796 -0.0325,-1.76088 -0.18839,-2.06641 -1.51722,-2.97345 -2.09043,-1.4269 -5.08998,-1.43101 -6.74888,-0.009 -0.6428,0.55092 -1.37411,1.4462 -1.62511,1.98953 -1.05284,2.2789 1.87162,5.38649 5.06903,5.38649 0.96806,0 1.96571,-0.38631 3.13874,-1.21541 z m -63.4948,-22.28169 V 179.9999 l -24.83627,0.0941 -24.836278,0.0942 -0.115173,20.12474 -0.115172,20.12474 h 24.951413 24.95142 z m -39.571276,11.7266 c -0.950042,-0.82685 -0.968648,-1.0527 -0.968648,-11.75703 0,-9.2885 0.103211,-11.03458 0.693506,-11.72354 0.691939,-0.80773 0.725328,-0.80955 14.872798,-0.80955 h 14.1793 l 0.71949,0.89781 c 0.62173,0.77582 0.71947,2.37551 0.71947,11.77457 v 10.87679 l -1.03107,0.792 c -1.01212,0.77743 -1.28097,0.79199 -14.62364,0.79199 H 91.123435 Z M 179.4623,203.8152 c 2.74319,-1.06433 3.59768,-3.65492 1.93919,-5.87901 -2.55741,-3.42958 -9.3535,-1.85584 -9.3535,2.16594 0,3.32527 3.67295,5.16467 7.41431,3.71307 z m 13.0049,-19.225 c 1.51928,-0.64237 2.47916,-2.06468 2.47916,-3.67356 0,-4.74618 -7.56745,-5.79645 -9.83224,-1.36461 -1.73568,3.3965 3.21429,6.78811 7.35308,5.03817 z m -74.12016,-50.661 c -3.16561,-1.31911 -22.995759,-16.62542 -26.323197,-20.31808 -4.361806,-4.84059 -6.170497,-9.0331 -6.163205,-14.286189 0.005,-3.322253 0.128471,-3.857083 1.408866,-6.083213 3.976576,-6.913893 14.296436,-10.420396 23.338236,-7.929931 3.20654,0.883201 6.99798,2.82243 8.64255,4.42048 l 1.12134,1.08959 1.94667,-1.591656 c 2.15691,-1.763547 6.14691,-3.6363 9.12949,-4.285006 6.51491,-1.417002 14.87508,0.644452 19.46689,4.800124 4.89964,4.434272 5.58313,11.642051 1.77212,18.687881 -2.50418,4.62974 -7.35845,9.18754 -19.44385,18.25636 -10.41545,7.81569 -11.84554,8.51073 -14.89591,7.23964 z M 105.66943,39.770262 v -2.913995 h 4.90043 4.90044 V 24.471815 12.087363 h -4.90044 -4.90043 V 9.1733676 6.2593737 h 14.25579 14.25579 v 2.9139939 2.9139954 h -4.90042 -4.90043 v 12.384452 12.384452 h 4.90043 4.90042 v 2.913995 2.913994 h -14.25579 -14.25579 z"
       id="path794" />
  </g>
</svg>
